<?xml version="1.0" encoding="UTF-8" standalone="no"?>
<!DOCTYPE svg PUBLIC "-//W3C//DTD SVG 1.1//EN"
 "http://www.w3.org/Graphics/SVG/1.1/DTD/svg11.dtd">
<!-- Generated by graphviz version 2.40.1 (20161225.0304)
 -->
<!-- Title: dependencies Pages: 1 -->
<svg width="2024pt" height="211pt"
 viewBox="0.00 0.00 2024.00 211.00" xmlns="http://www.w3.org/2000/svg" xmlns:xlink="http://www.w3.org/1999/xlink">
<g id="graph0" class="graph" transform="scale(1 1) rotate(0) translate(4 207)">
<title>dependencies</title>
<polygon fill="#ffffff" stroke="transparent" points="-4,4 -4,-207 2020,-207 2020,4 -4,4"/>
<text text-anchor="start" x="987.0091" y="-42.4" font-family="sans-serif" font-weight="bold" font-size="14.00" fill="#000000">Legend</text>
<polygon fill="#ffffb3" stroke="transparent" points="774,-10 774,-30 794,-30 794,-10 774,-10"/>
<text text-anchor="start" x="797.629" y="-15.4" font-family="sans-serif" font-size="14.00" fill="#000000"> &#160;Declarations</text>
<polygon fill="#8dd3c7" stroke="transparent" points="887,-10 887,-30 907,-30 907,-10 887,-10"/>
<text text-anchor="start" x="910.7251" y="-15.4" font-family="sans-serif" font-size="14.00" fill="#000000"> &#160;Module</text>
<polygon fill="#80b1d3" stroke="transparent" points="973,-10 973,-30 993,-30 993,-10 973,-10"/>
<text text-anchor="start" x="996.7812" y="-15.4" font-family="sans-serif" font-size="14.00" fill="#000000"> &#160;Bootstrap</text>
<polygon fill="#fdb462" stroke="transparent" points="1070,-10 1070,-30 1090,-30 1090,-10 1070,-10"/>
<text text-anchor="start" x="1093.6732" y="-15.4" font-family="sans-serif" font-size="14.00" fill="#000000"> &#160;Providers</text>
<polygon fill="#fb8072" stroke="transparent" points="1166,-10 1166,-30 1186,-30 1186,-10 1166,-10"/>
<text text-anchor="start" x="1189.7258" y="-15.4" font-family="sans-serif" font-size="14.00" fill="#000000"> &#160;Exports</text>
<g id="clust1" class="cluster">
<title>cluster_AdministradorModule</title>
<polygon fill="none" stroke="#000000" stroke-dasharray="1,5" points="8,-70 8,-195 2008,-195 2008,-70 8,-70"/>
</g>
<g id="clust2" class="cluster">
<title>cluster_AdministradorModule_declarations</title>
<polygon fill="none" stroke="#000000" points="206,-78 206,-130 2000,-130 2000,-78 206,-78"/>
</g>
<g id="clust12" class="cluster">
<title>cluster_AdministradorModule_imports</title>
<polygon fill="none" stroke="#000000" points="16,-78 16,-130 198,-130 198,-78 16,-78"/>
</g>
<!-- ActualizarTipoRequerimientoComponent -->
<g id="node1" class="node">
<title>ActualizarTipoRequerimientoComponent</title>
<polygon fill="#ffffb3" stroke="#000000" points="1991.7766,-122 1742.2234,-122 1742.2234,-86 1991.7766,-86 1991.7766,-122"/>
<text text-anchor="middle" x="1867" y="-99.8" font-family="Times,serif" font-size="14.00" fill="#000000">ActualizarTipoRequerimientoComponent</text>
</g>
<!-- AdministradorModule -->
<g id="node10" class="node">
<title>AdministradorModule</title>
<polygon fill="#8dd3c7" stroke="#000000" points="1089.6993,-187 1086.6993,-191 1065.6993,-191 1062.6993,-187 948.3007,-187 948.3007,-151 1089.6993,-151 1089.6993,-187"/>
<text text-anchor="middle" x="1019" y="-164.8" font-family="Times,serif" font-size="14.00" fill="#000000">AdministradorModule</text>
</g>
<!-- ActualizarTipoRequerimientoComponent&#45;&gt;AdministradorModule -->
<g id="edge1" class="edge">
<title>ActualizarTipoRequerimientoComponent&#45;&gt;AdministradorModule</title>
<path fill="none" stroke="#000000" d="M1867,-122.0109C1867,-144.4852 1867,-180 1867,-180 1867,-180 1099.8414,-180 1099.8414,-180"/>
<polygon fill="#000000" stroke="#000000" points="1099.8415,-176.5001 1089.8414,-180 1099.8414,-183.5001 1099.8415,-176.5001"/>
</g>
<!-- CrearPerfilComponent -->
<g id="node2" class="node">
<title>CrearPerfilComponent</title>
<polygon fill="#ffffb3" stroke="#000000" points="1724.5198,-122 1581.4802,-122 1581.4802,-86 1724.5198,-86 1724.5198,-122"/>
<text text-anchor="middle" x="1653" y="-99.8" font-family="Times,serif" font-size="14.00" fill="#000000">CrearPerfilComponent</text>
</g>
<!-- CrearPerfilComponent&#45;&gt;AdministradorModule -->
<g id="edge2" class="edge">
<title>CrearPerfilComponent&#45;&gt;AdministradorModule</title>
<path fill="none" stroke="#000000" d="M1653,-122.1289C1653,-142.5724 1653,-173 1653,-173 1653,-173 1099.8824,-173 1099.8824,-173"/>
<polygon fill="#000000" stroke="#000000" points="1099.8824,-169.5001 1089.8824,-173 1099.8824,-176.5001 1099.8824,-169.5001"/>
</g>
<!-- EditarEmpleadoComponent -->
<g id="node3" class="node">
<title>EditarEmpleadoComponent</title>
<polygon fill="#ffffb3" stroke="#000000" points="1563.3047,-122 1390.6953,-122 1390.6953,-86 1563.3047,-86 1563.3047,-122"/>
<text text-anchor="middle" x="1477" y="-99.8" font-family="Times,serif" font-size="14.00" fill="#000000">EditarEmpleadoComponent</text>
</g>
<!-- EditarEmpleadoComponent&#45;&gt;AdministradorModule -->
<g id="edge3" class="edge">
<title>EditarEmpleadoComponent&#45;&gt;AdministradorModule</title>
<path fill="none" stroke="#000000" d="M1477,-122.2667C1477,-140.5552 1477,-166 1477,-166 1477,-166 1099.8092,-166 1099.8092,-166"/>
<polygon fill="#000000" stroke="#000000" points="1099.8093,-162.5001 1089.8092,-166 1099.8092,-169.5001 1099.8093,-162.5001"/>
</g>
<!-- EditarPerfilComponent -->
<g id="node4" class="node">
<title>EditarPerfilComponent</title>
<polygon fill="#ffffb3" stroke="#000000" points="1373.1414,-122 1226.8586,-122 1226.8586,-86 1373.1414,-86 1373.1414,-122"/>
<text text-anchor="middle" x="1300" y="-99.8" font-family="Times,serif" font-size="14.00" fill="#000000">EditarPerfilComponent</text>
</g>
<!-- EditarPerfilComponent&#45;&gt;AdministradorModule -->
<g id="edge4" class="edge">
<title>EditarPerfilComponent&#45;&gt;AdministradorModule</title>
<path fill="none" stroke="#000000" d="M1300,-122.0091C1300,-138.0494 1300,-159 1300,-159 1300,-159 1099.9082,-159 1099.9082,-159"/>
<polygon fill="#000000" stroke="#000000" points="1099.9082,-155.5001 1089.9082,-159 1099.9081,-162.5001 1099.9082,-155.5001"/>
</g>
<!-- EliminarEmpleadoComponent -->
<g id="node5" class="node">
<title>EliminarEmpleadoComponent</title>
<polygon fill="#ffffb3" stroke="#000000" points="1208.5856,-122 1021.4144,-122 1021.4144,-86 1208.5856,-86 1208.5856,-122"/>
<text text-anchor="middle" x="1115" y="-99.8" font-family="Times,serif" font-size="14.00" fill="#000000">EliminarEmpleadoComponent</text>
</g>
<!-- EliminarEmpleadoComponent&#45;&gt;AdministradorModule -->
<g id="edge5" class="edge">
<title>EliminarEmpleadoComponent&#45;&gt;AdministradorModule</title>
<path fill="none" stroke="#000000" d="M1055.5284,-122.1061C1055.5284,-122.1061 1055.5284,-140.991 1055.5284,-140.991"/>
<polygon fill="#000000" stroke="#000000" points="1052.0285,-140.9909 1055.5284,-150.991 1059.0285,-140.991 1052.0285,-140.9909"/>
</g>
<!-- EliminarPerfilComponent -->
<g id="node6" class="node">
<title>EliminarPerfilComponent</title>
<polygon fill="#ffffb3" stroke="#000000" points="1003.9228,-122 842.0772,-122 842.0772,-86 1003.9228,-86 1003.9228,-122"/>
<text text-anchor="middle" x="923" y="-99.8" font-family="Times,serif" font-size="14.00" fill="#000000">EliminarPerfilComponent</text>
</g>
<!-- EliminarPerfilComponent&#45;&gt;AdministradorModule -->
<g id="edge6" class="edge">
<title>EliminarPerfilComponent&#45;&gt;AdministradorModule</title>
<path fill="none" stroke="#000000" d="M976.0558,-122.1061C976.0558,-122.1061 976.0558,-140.991 976.0558,-140.991"/>
<polygon fill="#000000" stroke="#000000" points="972.5558,-140.9909 976.0558,-150.991 979.5558,-140.991 972.5558,-140.9909"/>
</g>
<!-- EliminarTipoRequerimientoComponent -->
<g id="node7" class="node">
<title>EliminarTipoRequerimientoComponent</title>
<polygon fill="#ffffb3" stroke="#000000" points="823.9692,-122 584.0308,-122 584.0308,-86 823.9692,-86 823.9692,-122"/>
<text text-anchor="middle" x="704" y="-99.8" font-family="Times,serif" font-size="14.00" fill="#000000">EliminarTipoRequerimientoComponent</text>
</g>
<!-- EliminarTipoRequerimientoComponent&#45;&gt;AdministradorModule -->
<g id="edge7" class="edge">
<title>EliminarTipoRequerimientoComponent&#45;&gt;AdministradorModule</title>
<path fill="none" stroke="#000000" d="M704,-122.0091C704,-138.0494 704,-159 704,-159 704,-159 938.3079,-159 938.3079,-159"/>
<polygon fill="#000000" stroke="#000000" points="938.3079,-162.5001 948.3079,-159 938.3078,-155.5001 938.3079,-162.5001"/>
</g>
<!-- EmpleadosComponent -->
<g id="node8" class="node">
<title>EmpleadosComponent</title>
<polygon fill="#ffffb3" stroke="#000000" points="565.5407,-122 422.4593,-122 422.4593,-86 565.5407,-86 565.5407,-122"/>
<text text-anchor="middle" x="494" y="-99.8" font-family="Times,serif" font-size="14.00" fill="#000000">EmpleadosComponent</text>
</g>
<!-- EmpleadosComponent&#45;&gt;AdministradorModule -->
<g id="edge8" class="edge">
<title>EmpleadosComponent&#45;&gt;AdministradorModule</title>
<path fill="none" stroke="#000000" d="M494,-122.2667C494,-140.5552 494,-166 494,-166 494,-166 938.1962,-166 938.1962,-166"/>
<polygon fill="#000000" stroke="#000000" points="938.1962,-169.5001 948.1962,-166 938.1961,-162.5001 938.1962,-169.5001"/>
</g>
<!-- TipoRequerimientoComponent -->
<g id="node9" class="node">
<title>TipoRequerimientoComponent</title>
<polygon fill="#ffffb3" stroke="#000000" points="404.479,-122 213.521,-122 213.521,-86 404.479,-86 404.479,-122"/>
<text text-anchor="middle" x="309" y="-99.8" font-family="Times,serif" font-size="14.00" fill="#000000">TipoRequerimientoComponent</text>
</g>
<!-- TipoRequerimientoComponent&#45;&gt;AdministradorModule -->
<g id="edge9" class="edge">
<title>TipoRequerimientoComponent&#45;&gt;AdministradorModule</title>
<path fill="none" stroke="#000000" d="M309,-122.1289C309,-142.5724 309,-173 309,-173 309,-173 938.3268,-173 938.3268,-173"/>
<polygon fill="#000000" stroke="#000000" points="938.3268,-176.5001 948.3268,-173 938.3267,-169.5001 938.3268,-176.5001"/>
</g>
<!-- CrearPerfilRoutingModule -->
<g id="node11" class="node">
<title>CrearPerfilRoutingModule</title>
<polygon fill="#8dd3c7" stroke="#000000" points="190.3543,-122 187.3543,-126 166.3543,-126 163.3543,-122 23.6457,-122 23.6457,-86 190.3543,-86 190.3543,-122"/>
<text text-anchor="middle" x="107" y="-99.8" font-family="Times,serif" font-size="14.00" fill="#000000">CrearPerfilRoutingModule</text>
</g>
<!-- CrearPerfilRoutingModule&#45;&gt;AdministradorModule -->
<g id="edge10" class="edge">
<title>CrearPerfilRoutingModule&#45;&gt;AdministradorModule</title>
<path fill="none" stroke="#000000" d="M107,-122.0109C107,-144.4852 107,-180 107,-180 107,-180 938.1958,-180 938.1958,-180"/>
<polygon fill="#000000" stroke="#000000" points="938.1958,-183.5001 948.1958,-180 938.1957,-176.5001 938.1958,-183.5001"/>
</g>
</g>
</svg>
