<?xml version="1.0" encoding="UTF-8" standalone="no"?>
<!DOCTYPE svg PUBLIC "-//W3C//DTD SVG 1.1//EN"
 "http://www.w3.org/Graphics/SVG/1.1/DTD/svg11.dtd">
<!-- Generated by graphviz version 2.40.1 (20161225.0304)
 -->
<!-- Title: dependencies Pages: 1 -->
<svg width="5170pt" height="284pt"
 viewBox="0.00 0.00 5170.00 284.00" xmlns="http://www.w3.org/2000/svg" xmlns:xlink="http://www.w3.org/1999/xlink">
<g id="graph0" class="graph" transform="scale(1 1) rotate(0) translate(4 280)">
<title>dependencies</title>
<polygon fill="#ffffff" stroke="transparent" points="-4,4 -4,-280 5166,-280 5166,4 -4,4"/>
<text text-anchor="start" x="2560.0091" y="-42.4" font-family="sans-serif" font-weight="bold" font-size="14.00" fill="#000000">Legend</text>
<polygon fill="#ffffb3" stroke="transparent" points="2347,-10 2347,-30 2367,-30 2367,-10 2347,-10"/>
<text text-anchor="start" x="2370.629" y="-15.4" font-family="sans-serif" font-size="14.00" fill="#000000"> &#160;Declarations</text>
<polygon fill="#8dd3c7" stroke="transparent" points="2460,-10 2460,-30 2480,-30 2480,-10 2460,-10"/>
<text text-anchor="start" x="2483.7251" y="-15.4" font-family="sans-serif" font-size="14.00" fill="#000000"> &#160;Module</text>
<polygon fill="#80b1d3" stroke="transparent" points="2546,-10 2546,-30 2566,-30 2566,-10 2546,-10"/>
<text text-anchor="start" x="2569.7812" y="-15.4" font-family="sans-serif" font-size="14.00" fill="#000000"> &#160;Bootstrap</text>
<polygon fill="#fdb462" stroke="transparent" points="2643,-10 2643,-30 2663,-30 2663,-10 2643,-10"/>
<text text-anchor="start" x="2666.6732" y="-15.4" font-family="sans-serif" font-size="14.00" fill="#000000"> &#160;Providers</text>
<polygon fill="#fb8072" stroke="transparent" points="2739,-10 2739,-30 2759,-30 2759,-10 2739,-10"/>
<text text-anchor="start" x="2762.7258" y="-15.4" font-family="sans-serif" font-size="14.00" fill="#000000"> &#160;Exports</text>
<g id="clust1" class="cluster">
<title>cluster_AppModule</title>
<polygon fill="none" stroke="#000000" stroke-dasharray="1,5" points="8,-70 8,-268 5154,-268 5154,-70 8,-70"/>
</g>
<g id="clust2" class="cluster">
<title>cluster_AppModule_declarations</title>
<polygon fill="none" stroke="#000000" points="368,-78 368,-130 5146,-130 5146,-78 368,-78"/>
</g>
<g id="clust31" class="cluster">
<title>cluster_AppModule_imports</title>
<polygon fill="none" stroke="#000000" points="216,-78 216,-130 360,-130 360,-78 216,-78"/>
</g>
<g id="clust33" class="cluster">
<title>cluster_AppModule_bootstrap</title>
<polygon fill="none" stroke="#000000" points="2414,-208 2414,-260 2538,-260 2538,-208 2414,-208"/>
</g>
<g id="clust34" class="cluster">
<title>cluster_AppModule_providers</title>
<polygon fill="none" stroke="#000000" points="16,-78 16,-130 208,-130 208,-78 16,-78"/>
</g>
<!-- ActualizarTipoRequerimientoComponent -->
<g id="node1" class="node">
<title>ActualizarTipoRequerimientoComponent</title>
<polygon fill="#ffffb3" stroke="#000000" points="5137.7766,-122 4888.2234,-122 4888.2234,-86 5137.7766,-86 5137.7766,-122"/>
<text text-anchor="middle" x="5013" y="-99.8" font-family="Times,serif" font-size="14.00" fill="#000000">ActualizarTipoRequerimientoComponent</text>
</g>
<!-- AppModule -->
<g id="node29" class="node">
<title>AppModule</title>
<polygon fill="#8dd3c7" stroke="#000000" points="2517.6571,-187 2514.6571,-191 2493.6571,-191 2490.6571,-187 2434.3429,-187 2434.3429,-151 2517.6571,-151 2517.6571,-187"/>
<text text-anchor="middle" x="2476" y="-164.8" font-family="Times,serif" font-size="14.00" fill="#000000">AppModule</text>
</g>
<!-- ActualizarTipoRequerimientoComponent&#45;&gt;AppModule -->
<g id="edge1" class="edge">
<title>ActualizarTipoRequerimientoComponent&#45;&gt;AppModule</title>
<path fill="none" stroke="#000000" d="M5013,-122.3802C5013,-146.2785 5013,-185 5013,-185 5013,-185 2527.9177,-185 2527.9177,-185"/>
<polygon fill="#000000" stroke="#000000" points="2527.9177,-181.5001 2517.9177,-185 2527.9177,-188.5001 2527.9177,-181.5001"/>
</g>
<!-- AdministradorComponent -->
<g id="node2" class="node">
<title>AdministradorComponent</title>
<polygon fill="#ffffb3" stroke="#000000" points="4870.4818,-122 4707.5182,-122 4707.5182,-86 4870.4818,-86 4870.4818,-122"/>
<text text-anchor="middle" x="4789" y="-99.8" font-family="Times,serif" font-size="14.00" fill="#000000">AdministradorComponent</text>
</g>
<!-- AdministradorComponent&#45;&gt;AppModule -->
<g id="edge2" class="edge">
<title>AdministradorComponent&#45;&gt;AppModule</title>
<path fill="none" stroke="#000000" d="M4789,-122.3228C4789,-145.6602 4789,-183 4789,-183 4789,-183 2528.1209,-183 2528.1209,-183"/>
<polygon fill="#000000" stroke="#000000" points="2528.121,-179.5001 2518.1209,-183 2528.1209,-186.5001 2528.121,-179.5001"/>
</g>
<!-- AppComponent -->
<g id="node3" class="node">
<title>AppComponent</title>
<polygon fill="#ffffb3" stroke="#000000" points="4689.9399,-122 4584.0601,-122 4584.0601,-86 4689.9399,-86 4689.9399,-122"/>
<text text-anchor="middle" x="4637" y="-99.8" font-family="Times,serif" font-size="14.00" fill="#000000">AppComponent</text>
</g>
<!-- AppComponent&#45;&gt;AppModule -->
<g id="edge3" class="edge">
<title>AppComponent&#45;&gt;AppModule</title>
<path fill="none" stroke="#000000" d="M4637,-122.2479C4637,-145.0179 4637,-181 4637,-181 4637,-181 2527.7172,-181 2527.7172,-181"/>
<polygon fill="#000000" stroke="#000000" points="2527.7173,-177.5001 2517.7172,-181 2527.7172,-184.5001 2527.7173,-177.5001"/>
</g>
<!-- CrearPerfilComponent -->
<g id="node4" class="node">
<title>CrearPerfilComponent</title>
<polygon fill="#ffffb3" stroke="#000000" points="4566.5198,-122 4423.4802,-122 4423.4802,-86 4566.5198,-86 4566.5198,-122"/>
<text text-anchor="middle" x="4495" y="-99.8" font-family="Times,serif" font-size="14.00" fill="#000000">CrearPerfilComponent</text>
</g>
<!-- CrearPerfilComponent&#45;&gt;AppModule -->
<g id="edge4" class="edge">
<title>CrearPerfilComponent&#45;&gt;AppModule</title>
<path fill="none" stroke="#000000" d="M4495,-122.2921C4495,-144.2057 4495,-178 4495,-178 4495,-178 2527.7062,-178 2527.7062,-178"/>
<polygon fill="#000000" stroke="#000000" points="2527.7063,-174.5001 2517.7062,-178 2527.7062,-181.5001 2527.7063,-174.5001"/>
</g>
<!-- EditarEmpleadoComponent -->
<g id="node5" class="node">
<title>EditarEmpleadoComponent</title>
<polygon fill="#ffffb3" stroke="#000000" points="4405.3047,-122 4232.6953,-122 4232.6953,-86 4405.3047,-86 4405.3047,-122"/>
<text text-anchor="middle" x="4319" y="-99.8" font-family="Times,serif" font-size="14.00" fill="#000000">EditarEmpleadoComponent</text>
</g>
<!-- EditarEmpleadoComponent&#45;&gt;AppModule -->
<g id="edge5" class="edge">
<title>EditarEmpleadoComponent&#45;&gt;AppModule</title>
<path fill="none" stroke="#000000" d="M4319,-122.1686C4319,-143.498 4319,-176 4319,-176 4319,-176 2527.9564,-176 2527.9564,-176"/>
<polygon fill="#000000" stroke="#000000" points="2527.9564,-172.5001 2517.9564,-176 2527.9564,-179.5001 2527.9564,-172.5001"/>
</g>
<!-- EditarPerfilComponent -->
<g id="node6" class="node">
<title>EditarPerfilComponent</title>
<polygon fill="#ffffb3" stroke="#000000" points="4215.1414,-122 4068.8586,-122 4068.8586,-86 4215.1414,-86 4215.1414,-122"/>
<text text-anchor="middle" x="4142" y="-99.8" font-family="Times,serif" font-size="14.00" fill="#000000">EditarPerfilComponent</text>
</g>
<!-- EditarPerfilComponent&#45;&gt;AppModule -->
<g id="edge6" class="edge">
<title>EditarPerfilComponent&#45;&gt;AppModule</title>
<path fill="none" stroke="#000000" d="M4142,-122.0267C4142,-142.7672 4142,-174 4142,-174 4142,-174 2528.0155,-174 2528.0155,-174"/>
<polygon fill="#000000" stroke="#000000" points="2528.0155,-170.5001 2518.0155,-174 2528.0155,-177.5001 2528.0155,-170.5001"/>
</g>
<!-- EliminarEmpleadoComponent -->
<g id="node7" class="node">
<title>EliminarEmpleadoComponent</title>
<polygon fill="#ffffb3" stroke="#000000" points="4050.5856,-122 3863.4144,-122 3863.4144,-86 4050.5856,-86 4050.5856,-122"/>
<text text-anchor="middle" x="3957" y="-99.8" font-family="Times,serif" font-size="14.00" fill="#000000">EliminarEmpleadoComponent</text>
</g>
<!-- EliminarEmpleadoComponent&#45;&gt;AppModule -->
<g id="edge7" class="edge">
<title>EliminarEmpleadoComponent&#45;&gt;AppModule</title>
<path fill="none" stroke="#000000" d="M3957,-122.2228C3957,-142.3652 3957,-172 3957,-172 3957,-172 2527.9378,-172 2527.9378,-172"/>
<polygon fill="#000000" stroke="#000000" points="2527.9379,-168.5001 2517.9378,-172 2527.9378,-175.5001 2527.9379,-168.5001"/>
</g>
<!-- EliminarPerfilComponent -->
<g id="node8" class="node">
<title>EliminarPerfilComponent</title>
<polygon fill="#ffffb3" stroke="#000000" points="3845.9228,-122 3684.0772,-122 3684.0772,-86 3845.9228,-86 3845.9228,-122"/>
<text text-anchor="middle" x="3765" y="-99.8" font-family="Times,serif" font-size="14.00" fill="#000000">EliminarPerfilComponent</text>
</g>
<!-- EliminarPerfilComponent&#45;&gt;AppModule -->
<g id="edge8" class="edge">
<title>EliminarPerfilComponent&#45;&gt;AppModule</title>
<path fill="none" stroke="#000000" d="M3765,-122.1061C3765,-141.3391 3765,-169 3765,-169 3765,-169 2527.7902,-169 2527.7902,-169"/>
<polygon fill="#000000" stroke="#000000" points="2527.7903,-165.5001 2517.7902,-169 2527.7902,-172.5001 2527.7903,-165.5001"/>
</g>
<!-- EliminarTipoRequerimientoComponent -->
<g id="node9" class="node">
<title>EliminarTipoRequerimientoComponent</title>
<polygon fill="#ffffb3" stroke="#000000" points="3665.9692,-122 3426.0308,-122 3426.0308,-86 3665.9692,-86 3665.9692,-122"/>
<text text-anchor="middle" x="3546" y="-99.8" font-family="Times,serif" font-size="14.00" fill="#000000">EliminarTipoRequerimientoComponent</text>
</g>
<!-- EliminarTipoRequerimientoComponent&#45;&gt;AppModule -->
<g id="edge9" class="edge">
<title>EliminarTipoRequerimientoComponent&#45;&gt;AppModule</title>
<path fill="none" stroke="#000000" d="M3546,-122.2222C3546,-140.8285 3546,-167 3546,-167 3546,-167 2527.9453,-167 2527.9453,-167"/>
<polygon fill="#000000" stroke="#000000" points="2527.9453,-163.5001 2517.9453,-167 2527.9452,-170.5001 2527.9453,-163.5001"/>
</g>
<!-- EmpleadosComponent -->
<g id="node10" class="node">
<title>EmpleadosComponent</title>
<polygon fill="#ffffb3" stroke="#000000" points="3407.5407,-122 3264.4593,-122 3264.4593,-86 3407.5407,-86 3407.5407,-122"/>
<text text-anchor="middle" x="3336" y="-99.8" font-family="Times,serif" font-size="14.00" fill="#000000">EmpleadosComponent</text>
</g>
<!-- EmpleadosComponent&#45;&gt;AppModule -->
<g id="edge10" class="edge">
<title>EmpleadosComponent&#45;&gt;AppModule</title>
<path fill="none" stroke="#000000" d="M3336,-122.302C3336,-140.2699 3336,-165 3336,-165 3336,-165 2527.7702,-165 2527.7702,-165"/>
<polygon fill="#000000" stroke="#000000" points="2527.7703,-161.5001 2517.7702,-165 2527.7702,-168.5001 2527.7703,-161.5001"/>
</g>
<!-- Error404Component -->
<g id="node11" class="node">
<title>Error404Component</title>
<polygon fill="#ffffb3" stroke="#000000" points="3245.8669,-122 3114.1331,-122 3114.1331,-86 3245.8669,-86 3245.8669,-122"/>
<text text-anchor="middle" x="3180" y="-99.8" font-family="Times,serif" font-size="14.00" fill="#000000">Error404Component</text>
</g>
<!-- Error404Component&#45;&gt;AppModule -->
<g id="edge11" class="edge">
<title>Error404Component&#45;&gt;AppModule</title>
<path fill="none" stroke="#000000" d="M3180,-122.0225C3180,-139.3734 3180,-163 3180,-163 3180,-163 2527.6698,-163 2527.6698,-163"/>
<polygon fill="#000000" stroke="#000000" points="2527.6698,-159.5001 2517.6698,-163 2527.6697,-166.5001 2527.6698,-159.5001"/>
</g>
<!-- FechaPipe -->
<g id="node12" class="node">
<title>FechaPipe</title>
<polygon fill="#ffffb3" stroke="#000000" points="3096.3149,-122 3021.6851,-122 3021.6851,-86 3096.3149,-86 3096.3149,-122"/>
<text text-anchor="middle" x="3059" y="-99.8" font-family="Times,serif" font-size="14.00" fill="#000000">FechaPipe</text>
</g>
<!-- FechaPipe&#45;&gt;AppModule -->
<g id="edge12" class="edge">
<title>FechaPipe&#45;&gt;AppModule</title>
<path fill="none" stroke="#000000" d="M3059,-122.027C3059,-138.3976 3059,-160 3059,-160 3059,-160 2527.9279,-160 2527.9279,-160"/>
<polygon fill="#000000" stroke="#000000" points="2527.928,-156.5001 2517.9279,-160 2527.9279,-163.5001 2527.928,-156.5001"/>
</g>
<!-- FooterComponent -->
<g id="node13" class="node">
<title>FooterComponent</title>
<polygon fill="#ffffb3" stroke="#000000" points="3003.8809,-122 2886.1191,-122 2886.1191,-86 3003.8809,-86 3003.8809,-122"/>
<text text-anchor="middle" x="2945" y="-99.8" font-family="Times,serif" font-size="14.00" fill="#000000">FooterComponent</text>
</g>
<!-- FooterComponent&#45;&gt;AppModule -->
<g id="edge13" class="edge">
<title>FooterComponent&#45;&gt;AppModule</title>
<path fill="none" stroke="#000000" d="M2945,-122.2819C2945,-137.9478 2945,-158 2945,-158 2945,-158 2528.0334,-158 2528.0334,-158"/>
<polygon fill="#000000" stroke="#000000" points="2528.0334,-154.5001 2518.0334,-158 2528.0333,-161.5001 2528.0334,-154.5001"/>
</g>
<!-- ListaSeguimientoComponent -->
<g id="node14" class="node">
<title>ListaSeguimientoComponent</title>
<polygon fill="#ffffb3" stroke="#000000" points="2868.0996,-122 2687.9004,-122 2687.9004,-86 2868.0996,-86 2868.0996,-122"/>
<text text-anchor="middle" x="2778" y="-99.8" font-family="Times,serif" font-size="14.00" fill="#000000">ListaSeguimientoComponent</text>
</g>
<!-- ListaSeguimientoComponent&#45;&gt;AppModule -->
<g id="edge14" class="edge">
<title>ListaSeguimientoComponent&#45;&gt;AppModule</title>
<path fill="none" stroke="#000000" d="M2778,-122.1871C2778,-137.1824 2778,-156 2778,-156 2778,-156 2527.6747,-156 2527.6747,-156"/>
<polygon fill="#000000" stroke="#000000" points="2527.6748,-152.5001 2517.6747,-156 2527.6747,-159.5001 2527.6748,-152.5001"/>
</g>
<!-- LoginComponent -->
<g id="node15" class="node">
<title>LoginComponent</title>
<polygon fill="#ffffb3" stroke="#000000" points="2670.2758,-122 2555.7242,-122 2555.7242,-86 2670.2758,-86 2670.2758,-122"/>
<text text-anchor="middle" x="2613" y="-99.8" font-family="Times,serif" font-size="14.00" fill="#000000">LoginComponent</text>
</g>
<!-- LoginComponent&#45;&gt;AppModule -->
<g id="edge15" class="edge">
<title>LoginComponent&#45;&gt;AppModule</title>
<path fill="none" stroke="#000000" d="M2613,-122.0511C2613,-136.373 2613,-154 2613,-154 2613,-154 2527.8489,-154 2527.8489,-154"/>
<polygon fill="#000000" stroke="#000000" points="2527.849,-150.5001 2517.8489,-154 2527.8489,-157.5001 2527.849,-150.5001"/>
</g>
<!-- NavbarComponent -->
<g id="node16" class="node">
<title>NavbarComponent</title>
<polygon fill="#ffffb3" stroke="#000000" points="2537.0297,-122 2414.9703,-122 2414.9703,-86 2537.0297,-86 2537.0297,-122"/>
<text text-anchor="middle" x="2476" y="-99.8" font-family="Times,serif" font-size="14.00" fill="#000000">NavbarComponent</text>
</g>
<!-- NavbarComponent&#45;&gt;AppModule -->
<g id="edge16" class="edge">
<title>NavbarComponent&#45;&gt;AppModule</title>
<path fill="none" stroke="#000000" d="M2476,-122.1061C2476,-122.1061 2476,-140.991 2476,-140.991"/>
<polygon fill="#000000" stroke="#000000" points="2472.5001,-140.9909 2476,-150.991 2479.5001,-140.991 2472.5001,-140.9909"/>
</g>
<!-- NuevoUsuarioComponent -->
<g id="node17" class="node">
<title>NuevoUsuarioComponent</title>
<polygon fill="#ffffb3" stroke="#000000" points="2396.4706,-122 2233.5294,-122 2233.5294,-86 2396.4706,-86 2396.4706,-122"/>
<text text-anchor="middle" x="2315" y="-99.8" font-family="Times,serif" font-size="14.00" fill="#000000">NuevoUsuarioComponent</text>
</g>
<!-- NuevoUsuarioComponent&#45;&gt;AppModule -->
<g id="edge17" class="edge">
<title>NuevoUsuarioComponent&#45;&gt;AppModule</title>
<path fill="none" stroke="#000000" d="M2315,-122.0511C2315,-136.373 2315,-154 2315,-154 2315,-154 2424.1194,-154 2424.1194,-154"/>
<polygon fill="#000000" stroke="#000000" points="2424.1195,-157.5001 2434.1194,-154 2424.1194,-150.5001 2424.1195,-157.5001"/>
</g>
<!-- PerfilComponent -->
<g id="node18" class="node">
<title>PerfilComponent</title>
<polygon fill="#ffffb3" stroke="#000000" points="2215.4328,-122 2102.5672,-122 2102.5672,-86 2215.4328,-86 2215.4328,-122"/>
<text text-anchor="middle" x="2159" y="-99.8" font-family="Times,serif" font-size="14.00" fill="#000000">PerfilComponent</text>
</g>
<!-- PerfilComponent&#45;&gt;AppModule -->
<g id="edge18" class="edge">
<title>PerfilComponent&#45;&gt;AppModule</title>
<path fill="none" stroke="#000000" d="M2159,-122.1871C2159,-137.1824 2159,-156 2159,-156 2159,-156 2424.2318,-156 2424.2318,-156"/>
<polygon fill="#000000" stroke="#000000" points="2424.2318,-159.5001 2434.2318,-156 2424.2318,-152.5001 2424.2318,-159.5001"/>
</g>
<!-- PerfilesComponent -->
<g id="node19" class="node">
<title>PerfilesComponent</title>
<polygon fill="#ffffb3" stroke="#000000" points="2085.0912,-122 1960.9088,-122 1960.9088,-86 2085.0912,-86 2085.0912,-122"/>
<text text-anchor="middle" x="2023" y="-99.8" font-family="Times,serif" font-size="14.00" fill="#000000">PerfilesComponent</text>
</g>
<!-- PerfilesComponent&#45;&gt;AppModule -->
<g id="edge19" class="edge">
<title>PerfilesComponent&#45;&gt;AppModule</title>
<path fill="none" stroke="#000000" d="M2023,-122.2819C2023,-137.9478 2023,-158 2023,-158 2023,-158 2424.1948,-158 2424.1948,-158"/>
<polygon fill="#000000" stroke="#000000" points="2424.1949,-161.5001 2434.1948,-158 2424.1948,-154.5001 2424.1949,-161.5001"/>
</g>
<!-- PrincipalComponent -->
<g id="node20" class="node">
<title>PrincipalComponent</title>
<polygon fill="#ffffb3" stroke="#000000" points="1942.8767,-122 1811.1233,-122 1811.1233,-86 1942.8767,-86 1942.8767,-122"/>
<text text-anchor="middle" x="1877" y="-99.8" font-family="Times,serif" font-size="14.00" fill="#000000">PrincipalComponent</text>
</g>
<!-- PrincipalComponent&#45;&gt;AppModule -->
<g id="edge20" class="edge">
<title>PrincipalComponent&#45;&gt;AppModule</title>
<path fill="none" stroke="#000000" d="M1877,-122.027C1877,-138.3976 1877,-160 1877,-160 1877,-160 2423.8795,-160 2423.8795,-160"/>
<polygon fill="#000000" stroke="#000000" points="2423.8795,-163.5001 2433.8795,-160 2423.8794,-156.5001 2423.8795,-163.5001"/>
</g>
<!-- RequerimientoComponent -->
<g id="node21" class="node">
<title>RequerimientoComponent</title>
<polygon fill="#ffffb3" stroke="#000000" points="1793.0365,-122 1628.9635,-122 1628.9635,-86 1793.0365,-86 1793.0365,-122"/>
<text text-anchor="middle" x="1711" y="-99.8" font-family="Times,serif" font-size="14.00" fill="#000000">RequerimientoComponent</text>
</g>
<!-- RequerimientoComponent&#45;&gt;AppModule -->
<g id="edge21" class="edge">
<title>RequerimientoComponent&#45;&gt;AppModule</title>
<path fill="none" stroke="#000000" d="M1711,-122.0225C1711,-139.3734 1711,-163 1711,-163 1711,-163 2424.327,-163 2424.327,-163"/>
<polygon fill="#000000" stroke="#000000" points="2424.327,-166.5001 2434.327,-163 2424.327,-159.5001 2424.327,-166.5001"/>
</g>
<!-- RequerimientosComponent -->
<g id="node22" class="node">
<title>RequerimientosComponent</title>
<polygon fill="#ffffb3" stroke="#000000" points="1610.9804,-122 1441.0196,-122 1441.0196,-86 1610.9804,-86 1610.9804,-122"/>
<text text-anchor="middle" x="1526" y="-99.8" font-family="Times,serif" font-size="14.00" fill="#000000">RequerimientosComponent</text>
</g>
<!-- RequerimientosComponent&#45;&gt;AppModule -->
<g id="edge22" class="edge">
<title>RequerimientosComponent&#45;&gt;AppModule</title>
<path fill="none" stroke="#000000" d="M1526,-122.302C1526,-140.2699 1526,-165 1526,-165 1526,-165 2424.2619,-165 2424.2619,-165"/>
<polygon fill="#000000" stroke="#000000" points="2424.2619,-168.5001 2434.2619,-165 2424.2618,-161.5001 2424.2619,-168.5001"/>
</g>
<!-- RespuestaComponent -->
<g id="node23" class="node">
<title>RespuestaComponent</title>
<polygon fill="#ffffb3" stroke="#000000" points="1423.0926,-122 1284.9074,-122 1284.9074,-86 1423.0926,-86 1423.0926,-122"/>
<text text-anchor="middle" x="1354" y="-99.8" font-family="Times,serif" font-size="14.00" fill="#000000">RespuestaComponent</text>
</g>
<!-- RespuestaComponent&#45;&gt;AppModule -->
<g id="edge23" class="edge">
<title>RespuestaComponent&#45;&gt;AppModule</title>
<path fill="none" stroke="#000000" d="M1354,-122.2222C1354,-140.8285 1354,-167 1354,-167 1354,-167 2424.064,-167 2424.064,-167"/>
<polygon fill="#000000" stroke="#000000" points="2424.0641,-170.5001 2434.064,-167 2424.064,-163.5001 2424.0641,-170.5001"/>
</g>
<!-- RespuestaRequerimientosComponent -->
<g id="node24" class="node">
<title>RespuestaRequerimientosComponent</title>
<polygon fill="#ffffb3" stroke="#000000" points="1267.2407,-122 1040.7593,-122 1040.7593,-86 1267.2407,-86 1267.2407,-122"/>
<text text-anchor="middle" x="1154" y="-99.8" font-family="Times,serif" font-size="14.00" fill="#000000">RespuestaRequerimientosComponent</text>
</g>
<!-- RespuestaRequerimientosComponent&#45;&gt;AppModule -->
<g id="edge24" class="edge">
<title>RespuestaRequerimientosComponent&#45;&gt;AppModule</title>
<path fill="none" stroke="#000000" d="M1154,-122.1061C1154,-141.3391 1154,-169 1154,-169 1154,-169 2424.2517,-169 2424.2517,-169"/>
<polygon fill="#000000" stroke="#000000" points="2424.2518,-172.5001 2434.2517,-169 2424.2517,-165.5001 2424.2518,-172.5001"/>
</g>
<!-- SpinnerComponent -->
<g id="node25" class="node">
<title>SpinnerComponent</title>
<polygon fill="#ffffb3" stroke="#000000" points="1022.3809,-122 897.6191,-122 897.6191,-86 1022.3809,-86 1022.3809,-122"/>
<text text-anchor="middle" x="960" y="-99.8" font-family="Times,serif" font-size="14.00" fill="#000000">SpinnerComponent</text>
</g>
<!-- SpinnerComponent&#45;&gt;AppModule -->
<g id="edge25" class="edge">
<title>SpinnerComponent&#45;&gt;AppModule</title>
<path fill="none" stroke="#000000" d="M980.8135,-122.2228C980.8135,-142.3652 980.8135,-172 980.8135,-172 980.8135,-172 2424.0559,-172 2424.0559,-172"/>
<polygon fill="#000000" stroke="#000000" points="2424.0559,-175.5001 2434.0559,-172 2424.0559,-168.5001 2424.0559,-175.5001"/>
</g>
<!-- SpinnerComponent&#45;&gt;AppModule -->
<g id="edge26" class="edge">
<title>SpinnerComponent&#45;&gt;AppModule</title>
<path fill="none" stroke="#000000" d="M939.1865,-122.0267C939.1865,-142.7672 939.1865,-174 939.1865,-174 939.1865,-174 2424.0969,-174 2424.0969,-174"/>
<polygon fill="#000000" stroke="#000000" points="2424.097,-177.5001 2434.0969,-174 2424.0969,-170.5001 2424.097,-177.5001"/>
</g>
<!-- TipoRequerimientoComponent -->
<g id="node26" class="node">
<title>TipoRequerimientoComponent</title>
<polygon fill="#ffffb3" stroke="#000000" points="879.479,-122 688.521,-122 688.521,-86 879.479,-86 879.479,-122"/>
<text text-anchor="middle" x="784" y="-99.8" font-family="Times,serif" font-size="14.00" fill="#000000">TipoRequerimientoComponent</text>
</g>
<!-- TipoRequerimientoComponent&#45;&gt;AppModule -->
<g id="edge27" class="edge">
<title>TipoRequerimientoComponent&#45;&gt;AppModule</title>
<path fill="none" stroke="#000000" d="M784,-122.1686C784,-143.498 784,-176 784,-176 784,-176 2424.175,-176 2424.175,-176"/>
<polygon fill="#000000" stroke="#000000" points="2424.1751,-179.5001 2434.175,-176 2424.175,-172.5001 2424.1751,-179.5001"/>
</g>
<!-- VerComponent -->
<g id="node27" class="node">
<title>VerComponent</title>
<polygon fill="#ffffb3" stroke="#000000" points="670.3147,-122 567.6853,-122 567.6853,-86 670.3147,-86 670.3147,-122"/>
<text text-anchor="middle" x="619" y="-99.8" font-family="Times,serif" font-size="14.00" fill="#000000">VerComponent</text>
</g>
<!-- VerComponent&#45;&gt;AppModule -->
<g id="edge28" class="edge">
<title>VerComponent&#45;&gt;AppModule</title>
<path fill="none" stroke="#000000" d="M619,-122.2921C619,-144.2057 619,-178 619,-178 619,-178 2424.1687,-178 2424.1687,-178"/>
<polygon fill="#000000" stroke="#000000" points="2424.1687,-181.5001 2434.1687,-178 2424.1686,-174.5001 2424.1687,-181.5001"/>
</g>
<!-- VerSeguimientoComponent -->
<g id="node28" class="node">
<title>VerSeguimientoComponent</title>
<polygon fill="#ffffb3" stroke="#000000" points="549.5884,-122 376.4116,-122 376.4116,-86 549.5884,-86 549.5884,-122"/>
<text text-anchor="middle" x="463" y="-99.8" font-family="Times,serif" font-size="14.00" fill="#000000">VerSeguimientoComponent</text>
</g>
<!-- VerSeguimientoComponent&#45;&gt;AppModule -->
<g id="edge29" class="edge">
<title>VerSeguimientoComponent&#45;&gt;AppModule</title>
<path fill="none" stroke="#000000" d="M463,-122.2479C463,-145.0179 463,-181 463,-181 463,-181 2423.9556,-181 2423.9556,-181"/>
<polygon fill="#000000" stroke="#000000" points="2423.9557,-184.5001 2433.9556,-181 2423.9556,-177.5001 2423.9557,-184.5001"/>
</g>
<!-- AppComponent  -->
<g id="node31" class="node">
<title>AppComponent </title>
<polygon fill="#80b1d3" stroke="#000000" points="2530.439,-252 2421.561,-252 2421.561,-216 2530.439,-216 2530.439,-252"/>
<text text-anchor="middle" x="2476" y="-229.8" font-family="Times,serif" font-size="14.00" fill="#000000">AppComponent </text>
</g>
<!-- AppModule&#45;&gt;AppComponent  -->
<g id="edge31" class="edge">
<title>AppModule&#45;&gt;AppComponent </title>
<path fill="none" stroke="#000000" stroke-dasharray="1,5" d="M2476,-187.1061C2476,-187.1061 2476,-205.991 2476,-205.991"/>
<polygon fill="#000000" stroke="#000000" points="2472.5001,-205.9909 2476,-215.991 2479.5001,-205.991 2472.5001,-205.9909"/>
</g>
<!-- AppRoutingModule -->
<g id="node30" class="node">
<title>AppRoutingModule</title>
<polygon fill="#8dd3c7" stroke="#000000" points="352.2744,-122 349.2744,-126 328.2744,-126 325.2744,-122 223.7256,-122 223.7256,-86 352.2744,-86 352.2744,-122"/>
<text text-anchor="middle" x="288" y="-99.8" font-family="Times,serif" font-size="14.00" fill="#000000">AppRoutingModule</text>
</g>
<!-- AppRoutingModule&#45;&gt;AppModule -->
<g id="edge30" class="edge">
<title>AppRoutingModule&#45;&gt;AppModule</title>
<path fill="none" stroke="#000000" d="M288,-122.3228C288,-145.6602 288,-183 288,-183 288,-183 2424.2456,-183 2424.2456,-183"/>
<polygon fill="#000000" stroke="#000000" points="2424.2456,-186.5001 2434.2456,-183 2424.2455,-179.5001 2424.2456,-186.5001"/>
</g>
<!-- AuthServiceService -->
<g id="node32" class="node">
<title>AuthServiceService</title>
<ellipse fill="#fdb462" stroke="#000000" cx="112" cy="-104" rx="88.0191" ry="18"/>
<text text-anchor="middle" x="112" y="-99.8" font-family="Times,serif" font-size="14.00" fill="#000000">AuthServiceService</text>
</g>
<!-- AuthServiceService&#45;&gt;AppModule -->
<g id="edge32" class="edge">
<title>AuthServiceService&#45;&gt;AppModule</title>
<path fill="none" stroke="#000000" d="M112,-122.3802C112,-146.2785 112,-185 112,-185 112,-185 2424.2169,-185 2424.2169,-185"/>
<polygon fill="#000000" stroke="#000000" points="2424.217,-188.5001 2434.2169,-185 2424.2169,-181.5001 2424.217,-188.5001"/>
</g>
</g>
</svg>
