<?xml version="1.0" encoding="UTF-8" standalone="no"?>
<!DOCTYPE svg PUBLIC "-//W3C//DTD SVG 1.1//EN"
 "http://www.w3.org/Graphics/SVG/1.1/DTD/svg11.dtd">
<!-- Generated by graphviz version 2.40.1 (20161225.0304)
 -->
<!-- Title: dependencies Pages: 1 -->
<svg width="5733pt" height="284pt"
 viewBox="0.00 0.00 5733.00 284.00" xmlns="http://www.w3.org/2000/svg" xmlns:xlink="http://www.w3.org/1999/xlink">
<g id="graph0" class="graph" transform="scale(1 1) rotate(0) translate(4 280)">
<title>dependencies</title>
<polygon fill="#ffffff" stroke="transparent" points="-4,4 -4,-280 5729,-280 5729,4 -4,4"/>
<text text-anchor="start" x="2841.5091" y="-42.4" font-family="sans-serif" font-weight="bold" font-size="14.00" fill="#000000">Legend</text>
<polygon fill="#ffffb3" stroke="transparent" points="2628.5,-10 2628.5,-30 2648.5,-30 2648.5,-10 2628.5,-10"/>
<text text-anchor="start" x="2652.129" y="-15.4" font-family="sans-serif" font-size="14.00" fill="#000000"> &#160;Declarations</text>
<polygon fill="#8dd3c7" stroke="transparent" points="2741.5,-10 2741.5,-30 2761.5,-30 2761.5,-10 2741.5,-10"/>
<text text-anchor="start" x="2765.2251" y="-15.4" font-family="sans-serif" font-size="14.00" fill="#000000"> &#160;Module</text>
<polygon fill="#80b1d3" stroke="transparent" points="2827.5,-10 2827.5,-30 2847.5,-30 2847.5,-10 2827.5,-10"/>
<text text-anchor="start" x="2851.2812" y="-15.4" font-family="sans-serif" font-size="14.00" fill="#000000"> &#160;Bootstrap</text>
<polygon fill="#fdb462" stroke="transparent" points="2924.5,-10 2924.5,-30 2944.5,-30 2944.5,-10 2924.5,-10"/>
<text text-anchor="start" x="2948.1732" y="-15.4" font-family="sans-serif" font-size="14.00" fill="#000000"> &#160;Providers</text>
<polygon fill="#fb8072" stroke="transparent" points="3020.5,-10 3020.5,-30 3040.5,-30 3040.5,-10 3020.5,-10"/>
<text text-anchor="start" x="3044.2258" y="-15.4" font-family="sans-serif" font-size="14.00" fill="#000000"> &#160;Exports</text>
<g id="clust1" class="cluster">
<title>cluster_AdministradorModule</title>
<polygon fill="none" stroke="#000000" stroke-dasharray="1,5" points="8,-70 8,-195 2008,-195 2008,-70 8,-70"/>
</g>
<g id="clust2" class="cluster">
<title>cluster_AdministradorModule_declarations</title>
<polygon fill="none" stroke="#000000" points="206,-78 206,-130 2000,-130 2000,-78 206,-78"/>
</g>
<g id="clust12" class="cluster">
<title>cluster_AdministradorModule_imports</title>
<polygon fill="none" stroke="#000000" points="16,-78 16,-130 198,-130 198,-78 16,-78"/>
</g>
<g id="clust22" class="cluster">
<title>cluster_AppModule</title>
<polygon fill="none" stroke="#000000" stroke-dasharray="1,5" points="2162,-70 2162,-268 5511,-268 5511,-70 2162,-70"/>
</g>
<g id="clust23" class="cluster">
<title>cluster_AppModule_declarations</title>
<polygon fill="none" stroke="#000000" points="2522,-78 2522,-130 5503,-130 5503,-78 2522,-78"/>
</g>
<g id="clust52" class="cluster">
<title>cluster_AppModule_imports</title>
<polygon fill="none" stroke="#000000" points="2370,-78 2370,-130 2514,-130 2514,-78 2370,-78"/>
</g>
<g id="clust54" class="cluster">
<title>cluster_AppModule_bootstrap</title>
<polygon fill="none" stroke="#000000" points="3133,-208 3133,-260 3257,-260 3257,-208 3133,-208"/>
</g>
<g id="clust55" class="cluster">
<title>cluster_AppModule_providers</title>
<polygon fill="none" stroke="#000000" points="2170,-78 2170,-130 2362,-130 2362,-78 2170,-78"/>
</g>
<g id="clust62" class="cluster">
<title>cluster_CrearPerfilModule</title>
<polygon fill="none" stroke="#000000" stroke-dasharray="1,5" points="2016,-143 2016,-195 2154,-195 2154,-143 2016,-143"/>
</g>
<g id="clust74" class="cluster">
<title>cluster_EmpleadosModule</title>
<polygon fill="none" stroke="#000000" stroke-dasharray="1,5" points="5519,-70 5519,-195 5717,-195 5717,-70 5519,-70"/>
</g>
<g id="clust76" class="cluster">
<title>cluster_EmpleadosModule_imports</title>
<polygon fill="none" stroke="#000000" points="5527,-78 5527,-130 5709,-130 5709,-78 5527,-78"/>
</g>
<!-- ActualizarTipoRequerimientoComponent -->
<g id="node1" class="node">
<title>ActualizarTipoRequerimientoComponent</title>
<polygon fill="#ffffb3" stroke="#000000" points="978.7766,-122 729.2234,-122 729.2234,-86 978.7766,-86 978.7766,-122"/>
<text text-anchor="middle" x="854" y="-99.8" font-family="Times,serif" font-size="14.00" fill="#000000">ActualizarTipoRequerimientoComponent</text>
</g>
<!-- AdministradorModule -->
<g id="node10" class="node">
<title>AdministradorModule</title>
<polygon fill="#8dd3c7" stroke="#000000" points="1043.6993,-187 1040.6993,-191 1019.6993,-191 1016.6993,-187 902.3007,-187 902.3007,-151 1043.6993,-151 1043.6993,-187"/>
<text text-anchor="middle" x="973" y="-164.8" font-family="Times,serif" font-size="14.00" fill="#000000">AdministradorModule</text>
</g>
<!-- ActualizarTipoRequerimientoComponent&#45;&gt;AdministradorModule -->
<g id="edge1" class="edge">
<title>ActualizarTipoRequerimientoComponent&#45;&gt;AdministradorModule</title>
<path fill="none" stroke="#000000" d="M927.813,-122.1061C927.813,-122.1061 927.813,-140.991 927.813,-140.991"/>
<polygon fill="#000000" stroke="#000000" points="924.3131,-140.9909 927.813,-150.991 931.3131,-140.991 924.3131,-140.9909"/>
</g>
<!-- AppModule -->
<g id="node31" class="node">
<title>AppModule</title>
<polygon fill="#8dd3c7" stroke="#000000" points="3236.6571,-187 3233.6571,-191 3212.6571,-191 3209.6571,-187 3153.3429,-187 3153.3429,-151 3236.6571,-151 3236.6571,-187"/>
<text text-anchor="middle" x="3195" y="-164.8" font-family="Times,serif" font-size="14.00" fill="#000000">AppModule</text>
</g>
<!-- ActualizarTipoRequerimientoComponent&#45;&gt;AppModule -->
<g id="edge11" class="edge">
<title>ActualizarTipoRequerimientoComponent&#45;&gt;AppModule</title>
<path fill="none" stroke="#000000" d="M953.2256,-122.0449C953.2256,-129.749 953.2256,-137 953.2256,-137 953.2256,-137 3186.6344,-137 3186.6344,-137 3186.6344,-137 3186.6344,-140.7566 3186.6344,-140.7566"/>
<polygon fill="#000000" stroke="#000000" points="3183.1345,-140.7566 3186.6344,-150.7566 3190.1345,-140.7566 3183.1345,-140.7566"/>
</g>
<!-- CrearPerfilComponent -->
<g id="node2" class="node">
<title>CrearPerfilComponent</title>
<polygon fill="#ffffb3" stroke="#000000" points="711.5198,-122 568.4802,-122 568.4802,-86 711.5198,-86 711.5198,-122"/>
<text text-anchor="middle" x="640" y="-99.8" font-family="Times,serif" font-size="14.00" fill="#000000">CrearPerfilComponent</text>
</g>
<!-- CrearPerfilComponent&#45;&gt;AdministradorModule -->
<g id="edge2" class="edge">
<title>CrearPerfilComponent&#45;&gt;AdministradorModule</title>
<path fill="none" stroke="#000000" d="M663.9198,-122.0091C663.9198,-138.0494 663.9198,-159 663.9198,-159 663.9198,-159 892.0908,-159 892.0908,-159"/>
<polygon fill="#000000" stroke="#000000" points="892.0908,-162.5001 902.0908,-159 892.0907,-155.5001 892.0908,-162.5001"/>
</g>
<!-- CrearPerfilComponent&#45;&gt;AppModule -->
<g id="edge14" class="edge">
<title>CrearPerfilComponent&#45;&gt;AppModule</title>
<path fill="none" stroke="#000000" d="M616.0802,-122.4218C616.0802,-131.2791 616.0802,-140 616.0802,-140 616.0802,-140 3178.2687,-140 3178.2687,-140 3178.2687,-140 3178.2687,-141.0799 3178.2687,-141.0799"/>
<polygon fill="#000000" stroke="#000000" points="3174.7688,-140.7985 3178.2687,-150.7985 3181.7688,-140.7986 3174.7688,-140.7985"/>
</g>
<!-- EditarEmpleadoComponent -->
<g id="node3" class="node">
<title>EditarEmpleadoComponent</title>
<polygon fill="#ffffb3" stroke="#000000" points="550.3047,-122 377.6953,-122 377.6953,-86 550.3047,-86 550.3047,-122"/>
<text text-anchor="middle" x="464" y="-99.8" font-family="Times,serif" font-size="14.00" fill="#000000">EditarEmpleadoComponent</text>
</g>
<!-- EditarEmpleadoComponent&#45;&gt;AdministradorModule -->
<g id="edge3" class="edge">
<title>EditarEmpleadoComponent&#45;&gt;AdministradorModule</title>
<path fill="none" stroke="#000000" d="M492.7174,-122.2667C492.7174,-140.5552 492.7174,-166 492.7174,-166 492.7174,-166 892.3907,-166 892.3907,-166"/>
<polygon fill="#000000" stroke="#000000" points="892.3908,-169.5001 902.3907,-166 892.3907,-162.5001 892.3908,-169.5001"/>
</g>
<!-- EditarEmpleadoComponent&#45;&gt;AppModule -->
<g id="edge15" class="edge">
<title>EditarEmpleadoComponent&#45;&gt;AppModule</title>
<path fill="none" stroke="#000000" d="M435.2826,-122.1299C435.2826,-132.3145 435.2826,-143 435.2826,-143 435.2826,-143 3169.9031,-143 3169.9031,-143 3169.9031,-143 3169.9031,-143.7942 3169.9031,-143.7942"/>
<polygon fill="#000000" stroke="#000000" points="3166.4032,-140.9421 3169.9031,-150.9421 3173.4032,-140.9422 3166.4032,-140.9421"/>
</g>
<!-- EditarPerfilComponent -->
<g id="node4" class="node">
<title>EditarPerfilComponent</title>
<polygon fill="#ffffb3" stroke="#000000" points="360.1414,-122 213.8586,-122 213.8586,-86 360.1414,-86 360.1414,-122"/>
<text text-anchor="middle" x="287" y="-99.8" font-family="Times,serif" font-size="14.00" fill="#000000">EditarPerfilComponent</text>
</g>
<!-- EditarPerfilComponent&#45;&gt;AdministradorModule -->
<g id="edge4" class="edge">
<title>EditarPerfilComponent&#45;&gt;AdministradorModule</title>
<path fill="none" stroke="#000000" d="M311.4402,-122.1289C311.4402,-142.5724 311.4402,-173 311.4402,-173 311.4402,-173 892.2015,-173 892.2015,-173"/>
<polygon fill="#000000" stroke="#000000" points="892.2015,-176.5001 902.2015,-173 892.2015,-169.5001 892.2015,-176.5001"/>
</g>
<!-- EditarPerfilComponent&#45;&gt;AppModule -->
<g id="edge16" class="edge">
<title>EditarPerfilComponent&#45;&gt;AppModule</title>
<path fill="none" stroke="#000000" d="M262.5598,-122.0555C262.5598,-133.439 262.5598,-146 262.5598,-146 262.5598,-146 3161.5374,-146 3161.5374,-146 3161.5374,-146 3161.5374,-146.4878 3161.5374,-146.4878"/>
<polygon fill="#000000" stroke="#000000" points="3158.0377,-140.8776 3161.5374,-150.8777 3165.0377,-140.8778 3158.0377,-140.8776"/>
</g>
<!-- EliminarEmpleadoComponent -->
<g id="node5" class="node">
<title>EliminarEmpleadoComponent</title>
<polygon fill="#ffffb3" stroke="#000000" points="1991.5856,-122 1804.4144,-122 1804.4144,-86 1991.5856,-86 1991.5856,-122"/>
<text text-anchor="middle" x="1898" y="-99.8" font-family="Times,serif" font-size="14.00" fill="#000000">EliminarEmpleadoComponent</text>
</g>
<!-- EliminarEmpleadoComponent&#45;&gt;AdministradorModule -->
<g id="edge5" class="edge">
<title>EliminarEmpleadoComponent&#45;&gt;AdministradorModule</title>
<path fill="none" stroke="#000000" d="M1898,-122.0109C1898,-144.4852 1898,-180 1898,-180 1898,-180 1053.6655,-180 1053.6655,-180"/>
<polygon fill="#000000" stroke="#000000" points="1053.6655,-176.5001 1043.6655,-180 1053.6654,-183.5001 1053.6655,-176.5001"/>
</g>
<!-- EliminarEmpleadoComponent&#45;&gt;AppModule -->
<g id="edge17" class="edge">
<title>EliminarEmpleadoComponent&#45;&gt;AppModule</title>
<path fill="none" stroke="#000000" d="M1991.7504,-104C2067.5754,-104 2161.8045,-104 2161.8045,-104 2161.8045,-104 2161.8045,-183 2161.8045,-183 2161.8045,-183 3143.2179,-183 3143.2179,-183"/>
<polygon fill="#000000" stroke="#000000" points="3143.2179,-186.5001 3153.2179,-183 3143.2178,-179.5001 3143.2179,-186.5001"/>
</g>
<!-- EliminarPerfilComponent -->
<g id="node6" class="node">
<title>EliminarPerfilComponent</title>
<polygon fill="#ffffb3" stroke="#000000" points="1786.9228,-122 1625.0772,-122 1625.0772,-86 1786.9228,-86 1786.9228,-122"/>
<text text-anchor="middle" x="1706" y="-99.8" font-family="Times,serif" font-size="14.00" fill="#000000">EliminarPerfilComponent</text>
</g>
<!-- EliminarPerfilComponent&#45;&gt;AdministradorModule -->
<g id="edge6" class="edge">
<title>EliminarPerfilComponent&#45;&gt;AdministradorModule</title>
<path fill="none" stroke="#000000" d="M1732.9037,-122.1289C1732.9037,-142.5724 1732.9037,-173 1732.9037,-173 1732.9037,-173 1053.8075,-173 1053.8075,-173"/>
<polygon fill="#000000" stroke="#000000" points="1053.8075,-169.5001 1043.8075,-173 1053.8075,-176.5001 1053.8075,-169.5001"/>
</g>
<!-- EliminarPerfilComponent&#45;&gt;AppModule -->
<g id="edge18" class="edge">
<title>EliminarPerfilComponent&#45;&gt;AppModule</title>
<path fill="none" stroke="#000000" d="M1679.0963,-122.08C1679.0963,-123.8464 1679.0963,-125 1679.0963,-125 1679.0963,-125 3220.0969,-125 3220.0969,-125 3220.0969,-125 3220.0969,-140.8495 3220.0969,-140.8495"/>
<polygon fill="#000000" stroke="#000000" points="3216.597,-140.8494 3220.0969,-150.8495 3223.597,-140.8495 3216.597,-140.8494"/>
</g>
<!-- EliminarTipoRequerimientoComponent -->
<g id="node7" class="node">
<title>EliminarTipoRequerimientoComponent</title>
<polygon fill="#ffffb3" stroke="#000000" points="1606.9692,-122 1367.0308,-122 1367.0308,-86 1606.9692,-86 1606.9692,-122"/>
<text text-anchor="middle" x="1487" y="-99.8" font-family="Times,serif" font-size="14.00" fill="#000000">EliminarTipoRequerimientoComponent</text>
</g>
<!-- EliminarTipoRequerimientoComponent&#45;&gt;AdministradorModule -->
<g id="edge7" class="edge">
<title>EliminarTipoRequerimientoComponent&#45;&gt;AdministradorModule</title>
<path fill="none" stroke="#000000" d="M1526.9949,-122.2667C1526.9949,-140.5552 1526.9949,-166 1526.9949,-166 1526.9949,-166 1053.7265,-166 1053.7265,-166"/>
<polygon fill="#000000" stroke="#000000" points="1053.7266,-162.5001 1043.7265,-166 1053.7265,-169.5001 1053.7266,-162.5001"/>
</g>
<!-- EliminarTipoRequerimientoComponent&#45;&gt;AppModule -->
<g id="edge19" class="edge">
<title>EliminarTipoRequerimientoComponent&#45;&gt;AppModule</title>
<path fill="none" stroke="#000000" d="M1447.0051,-122.1903C1447.0051,-125.5376 1447.0051,-128 1447.0051,-128 1447.0051,-128 3211.7313,-128 3211.7313,-128 3211.7313,-128 3211.7313,-140.8975 3211.7313,-140.8975"/>
<polygon fill="#000000" stroke="#000000" points="3208.2314,-140.8974 3211.7313,-150.8975 3215.2314,-140.8975 3208.2314,-140.8974"/>
</g>
<!-- EmpleadosComponent -->
<g id="node8" class="node">
<title>EmpleadosComponent</title>
<polygon fill="#ffffb3" stroke="#000000" points="1348.5407,-122 1205.4593,-122 1205.4593,-86 1348.5407,-86 1348.5407,-122"/>
<text text-anchor="middle" x="1277" y="-99.8" font-family="Times,serif" font-size="14.00" fill="#000000">EmpleadosComponent</text>
</g>
<!-- EmpleadosComponent&#45;&gt;AdministradorModule -->
<g id="edge8" class="edge">
<title>EmpleadosComponent&#45;&gt;AdministradorModule</title>
<path fill="none" stroke="#000000" d="M1300.9233,-122.0091C1300.9233,-138.0494 1300.9233,-159 1300.9233,-159 1300.9233,-159 1053.7508,-159 1053.7508,-159"/>
<polygon fill="#000000" stroke="#000000" points="1053.7508,-155.5001 1043.7508,-159 1053.7507,-162.5001 1053.7508,-155.5001"/>
</g>
<!-- EmpleadosComponent&#45;&gt;AppModule -->
<g id="edge20" class="edge">
<title>EmpleadosComponent&#45;&gt;AppModule</title>
<path fill="none" stroke="#000000" d="M1253.0767,-122.1592C1253.0767,-127.0433 1253.0767,-131 1253.0767,-131 1253.0767,-131 3203.3656,-131 3203.3656,-131 3203.3656,-131 3203.3656,-140.8903 3203.3656,-140.8903"/>
<polygon fill="#000000" stroke="#000000" points="3199.8657,-140.8903 3203.3656,-150.8903 3206.8657,-140.8904 3199.8657,-140.8903"/>
</g>
<!-- TipoRequerimientoComponent -->
<g id="node9" class="node">
<title>TipoRequerimientoComponent</title>
<polygon fill="#ffffb3" stroke="#000000" points="1187.479,-122 996.521,-122 996.521,-86 1187.479,-86 1187.479,-122"/>
<text text-anchor="middle" x="1092" y="-99.8" font-family="Times,serif" font-size="14.00" fill="#000000">TipoRequerimientoComponent</text>
</g>
<!-- TipoRequerimientoComponent&#45;&gt;AdministradorModule -->
<g id="edge9" class="edge">
<title>TipoRequerimientoComponent&#45;&gt;AdministradorModule</title>
<path fill="none" stroke="#000000" d="M1020.0551,-122.1061C1020.0551,-122.1061 1020.0551,-140.991 1020.0551,-140.991"/>
<polygon fill="#000000" stroke="#000000" points="1016.5551,-140.9909 1020.0551,-150.991 1023.5551,-140.991 1016.5551,-140.9909"/>
</g>
<!-- TipoRequerimientoComponent&#45;&gt;AppModule -->
<g id="edge37" class="edge">
<title>TipoRequerimientoComponent&#45;&gt;AppModule</title>
<path fill="none" stroke="#000000" d="M1115.5446,-122.1432C1115.5446,-128.4611 1115.5446,-134 1115.5446,-134 1115.5446,-134 3195,-134 3195,-134 3195,-134 3195,-140.68 3195,-140.68"/>
<polygon fill="#000000" stroke="#000000" points="3191.5001,-140.6799 3195,-150.68 3198.5001,-140.68 3191.5001,-140.6799"/>
</g>
<!-- CrearPerfilRoutingModule -->
<g id="node11" class="node">
<title>CrearPerfilRoutingModule</title>
<polygon fill="#8dd3c7" stroke="#000000" points="190.3543,-122 187.3543,-126 166.3543,-126 163.3543,-122 23.6457,-122 23.6457,-86 190.3543,-86 190.3543,-122"/>
<text text-anchor="middle" x="107" y="-99.8" font-family="Times,serif" font-size="14.00" fill="#000000">CrearPerfilRoutingModule</text>
</g>
<!-- CrearPerfilRoutingModule&#45;&gt;AdministradorModule -->
<g id="edge10" class="edge">
<title>CrearPerfilRoutingModule&#45;&gt;AdministradorModule</title>
<path fill="none" stroke="#000000" d="M134.809,-122.0109C134.809,-144.4852 134.809,-180 134.809,-180 134.809,-180 892.2587,-180 892.2587,-180"/>
<polygon fill="#000000" stroke="#000000" points="892.2587,-183.5001 902.2587,-180 892.2587,-176.5001 892.2587,-183.5001"/>
</g>
<!-- CrearPerfilModule -->
<g id="node35" class="node">
<title>CrearPerfilModule</title>
<polygon fill="#8dd3c7" stroke="#000000" points="2145.7367,-187 2142.7367,-191 2121.7367,-191 2118.7367,-187 2024.2633,-187 2024.2633,-151 2145.7367,-151 2145.7367,-187"/>
<text text-anchor="middle" x="2085" y="-164.8" font-family="Times,serif" font-size="14.00" fill="#000000">CrearPerfilModule</text>
</g>
<!-- CrearPerfilRoutingModule&#45;&gt;CrearPerfilModule -->
<g id="edge43" class="edge">
<title>CrearPerfilRoutingModule&#45;&gt;CrearPerfilModule</title>
<path fill="none" stroke="#000000" d="M79.191,-122.0439C79.191,-134.5633 79.191,-149 79.191,-149 79.191,-149 2085,-149 2085,-149 2085,-149 2085,-149.1846 2085,-149.1846"/>
<polygon fill="#000000" stroke="#000000" points="2081.5006,-140.8455 2085,-150.8457 2088.5006,-140.8459 2081.5006,-140.8455"/>
</g>
<!-- AdministradorComponent -->
<g id="node12" class="node">
<title>AdministradorComponent</title>
<polygon fill="#ffffb3" stroke="#000000" points="4269.4818,-122 4106.5182,-122 4106.5182,-86 4269.4818,-86 4269.4818,-122"/>
<text text-anchor="middle" x="4188" y="-99.8" font-family="Times,serif" font-size="14.00" fill="#000000">AdministradorComponent</text>
</g>
<!-- AdministradorComponent&#45;&gt;AppModule -->
<g id="edge12" class="edge">
<title>AdministradorComponent&#45;&gt;AppModule</title>
<path fill="none" stroke="#000000" d="M4188,-122.2222C4188,-140.8285 4188,-167 4188,-167 4188,-167 3246.7182,-167 3246.7182,-167"/>
<polygon fill="#000000" stroke="#000000" points="3246.7182,-163.5001 3236.7182,-167 3246.7182,-170.5001 3246.7182,-163.5001"/>
</g>
<!-- AppComponent -->
<g id="node13" class="node">
<title>AppComponent</title>
<polygon fill="#ffffb3" stroke="#000000" points="4088.9399,-122 3983.0601,-122 3983.0601,-86 4088.9399,-86 4088.9399,-122"/>
<text text-anchor="middle" x="4036" y="-99.8" font-family="Times,serif" font-size="14.00" fill="#000000">AppComponent</text>
</g>
<!-- AppComponent&#45;&gt;AppModule -->
<g id="edge13" class="edge">
<title>AppComponent&#45;&gt;AppModule</title>
<path fill="none" stroke="#000000" d="M4036,-122.302C4036,-140.2699 4036,-165 4036,-165 4036,-165 3246.7053,-165 3246.7053,-165"/>
<polygon fill="#000000" stroke="#000000" points="3246.7054,-161.5001 3236.7053,-165 3246.7053,-168.5001 3246.7054,-161.5001"/>
</g>
<!-- Error404Component -->
<g id="node14" class="node">
<title>Error404Component</title>
<polygon fill="#ffffb3" stroke="#000000" points="3964.8669,-122 3833.1331,-122 3833.1331,-86 3964.8669,-86 3964.8669,-122"/>
<text text-anchor="middle" x="3899" y="-99.8" font-family="Times,serif" font-size="14.00" fill="#000000">Error404Component</text>
</g>
<!-- Error404Component&#45;&gt;AppModule -->
<g id="edge21" class="edge">
<title>Error404Component&#45;&gt;AppModule</title>
<path fill="none" stroke="#000000" d="M3899,-122.0225C3899,-139.3734 3899,-163 3899,-163 3899,-163 3246.6698,-163 3246.6698,-163"/>
<polygon fill="#000000" stroke="#000000" points="3246.6698,-159.5001 3236.6698,-163 3246.6697,-166.5001 3246.6698,-159.5001"/>
</g>
<!-- FechaPipe -->
<g id="node15" class="node">
<title>FechaPipe</title>
<polygon fill="#ffffb3" stroke="#000000" points="3815.3149,-122 3740.6851,-122 3740.6851,-86 3815.3149,-86 3815.3149,-122"/>
<text text-anchor="middle" x="3778" y="-99.8" font-family="Times,serif" font-size="14.00" fill="#000000">FechaPipe</text>
</g>
<!-- FechaPipe&#45;&gt;AppModule -->
<g id="edge22" class="edge">
<title>FechaPipe&#45;&gt;AppModule</title>
<path fill="none" stroke="#000000" d="M3778,-122.027C3778,-138.3976 3778,-160 3778,-160 3778,-160 3246.9279,-160 3246.9279,-160"/>
<polygon fill="#000000" stroke="#000000" points="3246.928,-156.5001 3236.9279,-160 3246.9279,-163.5001 3246.928,-156.5001"/>
</g>
<!-- FooterComponent -->
<g id="node16" class="node">
<title>FooterComponent</title>
<polygon fill="#ffffb3" stroke="#000000" points="3722.8809,-122 3605.1191,-122 3605.1191,-86 3722.8809,-86 3722.8809,-122"/>
<text text-anchor="middle" x="3664" y="-99.8" font-family="Times,serif" font-size="14.00" fill="#000000">FooterComponent</text>
</g>
<!-- FooterComponent&#45;&gt;AppModule -->
<g id="edge23" class="edge">
<title>FooterComponent&#45;&gt;AppModule</title>
<path fill="none" stroke="#000000" d="M3664,-122.2819C3664,-137.9478 3664,-158 3664,-158 3664,-158 3247.0334,-158 3247.0334,-158"/>
<polygon fill="#000000" stroke="#000000" points="3247.0334,-154.5001 3237.0334,-158 3247.0333,-161.5001 3247.0334,-154.5001"/>
</g>
<!-- ListaSeguimientoComponent -->
<g id="node17" class="node">
<title>ListaSeguimientoComponent</title>
<polygon fill="#ffffb3" stroke="#000000" points="3587.0996,-122 3406.9004,-122 3406.9004,-86 3587.0996,-86 3587.0996,-122"/>
<text text-anchor="middle" x="3497" y="-99.8" font-family="Times,serif" font-size="14.00" fill="#000000">ListaSeguimientoComponent</text>
</g>
<!-- ListaSeguimientoComponent&#45;&gt;AppModule -->
<g id="edge24" class="edge">
<title>ListaSeguimientoComponent&#45;&gt;AppModule</title>
<path fill="none" stroke="#000000" d="M3497,-122.1871C3497,-137.1824 3497,-156 3497,-156 3497,-156 3246.6747,-156 3246.6747,-156"/>
<polygon fill="#000000" stroke="#000000" points="3246.6748,-152.5001 3236.6747,-156 3246.6747,-159.5001 3246.6748,-152.5001"/>
</g>
<!-- LoginComponent -->
<g id="node18" class="node">
<title>LoginComponent</title>
<polygon fill="#ffffb3" stroke="#000000" points="3389.2758,-122 3274.7242,-122 3274.7242,-86 3389.2758,-86 3389.2758,-122"/>
<text text-anchor="middle" x="3332" y="-99.8" font-family="Times,serif" font-size="14.00" fill="#000000">LoginComponent</text>
</g>
<!-- LoginComponent&#45;&gt;AppModule -->
<g id="edge25" class="edge">
<title>LoginComponent&#45;&gt;AppModule</title>
<path fill="none" stroke="#000000" d="M3332,-122.0511C3332,-136.373 3332,-154 3332,-154 3332,-154 3246.8489,-154 3246.8489,-154"/>
<polygon fill="#000000" stroke="#000000" points="3246.849,-150.5001 3236.8489,-154 3246.8489,-157.5001 3246.849,-150.5001"/>
</g>
<!-- NavbarComponent -->
<g id="node19" class="node">
<title>NavbarComponent</title>
<polygon fill="#ffffb3" stroke="#000000" points="3256.0297,-122 3133.9703,-122 3133.9703,-86 3256.0297,-86 3256.0297,-122"/>
<text text-anchor="middle" x="3195" y="-99.8" font-family="Times,serif" font-size="14.00" fill="#000000">NavbarComponent</text>
</g>
<!-- NavbarComponent&#45;&gt;AppModule -->
<g id="edge26" class="edge">
<title>NavbarComponent&#45;&gt;AppModule</title>
<path fill="none" stroke="#000000" d="M3228.4626,-122.1061C3228.4626,-122.1061 3228.4626,-140.991 3228.4626,-140.991"/>
<polygon fill="#000000" stroke="#000000" points="3224.9627,-140.9909 3228.4626,-150.991 3231.9627,-140.991 3224.9627,-140.9909"/>
</g>
<!-- NuevoUsuarioComponent -->
<g id="node20" class="node">
<title>NuevoUsuarioComponent</title>
<polygon fill="#ffffb3" stroke="#000000" points="3115.4706,-122 2952.5294,-122 2952.5294,-86 3115.4706,-86 3115.4706,-122"/>
<text text-anchor="middle" x="3034" y="-99.8" font-family="Times,serif" font-size="14.00" fill="#000000">NuevoUsuarioComponent</text>
</g>
<!-- NuevoUsuarioComponent&#45;&gt;AppModule -->
<g id="edge27" class="edge">
<title>NuevoUsuarioComponent&#45;&gt;AppModule</title>
<path fill="none" stroke="#000000" d="M3034,-122.1871C3034,-137.1824 3034,-156 3034,-156 3034,-156 3143.1194,-156 3143.1194,-156"/>
<polygon fill="#000000" stroke="#000000" points="3143.1195,-159.5001 3153.1194,-156 3143.1194,-152.5001 3143.1195,-159.5001"/>
</g>
<!-- PerfilComponent -->
<g id="node21" class="node">
<title>PerfilComponent</title>
<polygon fill="#ffffb3" stroke="#000000" points="2934.4328,-122 2821.5672,-122 2821.5672,-86 2934.4328,-86 2934.4328,-122"/>
<text text-anchor="middle" x="2878" y="-99.8" font-family="Times,serif" font-size="14.00" fill="#000000">PerfilComponent</text>
</g>
<!-- PerfilComponent&#45;&gt;AppModule -->
<g id="edge28" class="edge">
<title>PerfilComponent&#45;&gt;AppModule</title>
<path fill="none" stroke="#000000" d="M2878,-122.027C2878,-138.3976 2878,-160 2878,-160 2878,-160 3143.2318,-160 3143.2318,-160"/>
<polygon fill="#000000" stroke="#000000" points="3143.2318,-163.5001 3153.2318,-160 3143.2318,-156.5001 3143.2318,-163.5001"/>
</g>
<!-- PerfilesComponent -->
<g id="node22" class="node">
<title>PerfilesComponent</title>
<polygon fill="#ffffb3" stroke="#000000" points="2804.0912,-122 2679.9088,-122 2679.9088,-86 2804.0912,-86 2804.0912,-122"/>
<text text-anchor="middle" x="2742" y="-99.8" font-family="Times,serif" font-size="14.00" fill="#000000">PerfilesComponent</text>
</g>
<!-- PerfilesComponent&#45;&gt;AppModule -->
<g id="edge29" class="edge">
<title>PerfilesComponent&#45;&gt;AppModule</title>
<path fill="none" stroke="#000000" d="M2742,-122.302C2742,-140.2699 2742,-165 2742,-165 2742,-165 3143.1948,-165 3143.1948,-165"/>
<polygon fill="#000000" stroke="#000000" points="3143.1949,-168.5001 3153.1948,-165 3143.1948,-161.5001 3143.1949,-168.5001"/>
</g>
<!-- PrincipalComponent -->
<g id="node23" class="node">
<title>PrincipalComponent</title>
<polygon fill="#ffffb3" stroke="#000000" points="2661.8767,-122 2530.1233,-122 2530.1233,-86 2661.8767,-86 2661.8767,-122"/>
<text text-anchor="middle" x="2596" y="-99.8" font-family="Times,serif" font-size="14.00" fill="#000000">PrincipalComponent</text>
</g>
<!-- PrincipalComponent&#45;&gt;AppModule -->
<g id="edge30" class="edge">
<title>PrincipalComponent&#45;&gt;AppModule</title>
<path fill="none" stroke="#000000" d="M2596,-122.1061C2596,-141.3391 2596,-169 2596,-169 2596,-169 3142.8795,-169 3142.8795,-169"/>
<polygon fill="#000000" stroke="#000000" points="3142.8795,-172.5001 3152.8795,-169 3142.8794,-165.5001 3142.8795,-172.5001"/>
</g>
<!-- RequerimientoComponent -->
<g id="node24" class="node">
<title>RequerimientoComponent</title>
<polygon fill="#ffffb3" stroke="#000000" points="5495.0365,-122 5330.9635,-122 5330.9635,-86 5495.0365,-86 5495.0365,-122"/>
<text text-anchor="middle" x="5413" y="-99.8" font-family="Times,serif" font-size="14.00" fill="#000000">RequerimientoComponent</text>
</g>
<!-- RequerimientoComponent&#45;&gt;AppModule -->
<g id="edge31" class="edge">
<title>RequerimientoComponent&#45;&gt;AppModule</title>
<path fill="none" stroke="#000000" d="M5413,-122.3802C5413,-146.2785 5413,-185 5413,-185 5413,-185 3246.8389,-185 3246.8389,-185"/>
<polygon fill="#000000" stroke="#000000" points="3246.839,-181.5001 3236.8389,-185 3246.8389,-188.5001 3246.839,-181.5001"/>
</g>
<!-- RequerimientosComponent -->
<g id="node25" class="node">
<title>RequerimientosComponent</title>
<polygon fill="#ffffb3" stroke="#000000" points="5312.9804,-122 5143.0196,-122 5143.0196,-86 5312.9804,-86 5312.9804,-122"/>
<text text-anchor="middle" x="5228" y="-99.8" font-family="Times,serif" font-size="14.00" fill="#000000">RequerimientosComponent</text>
</g>
<!-- RequerimientosComponent&#45;&gt;AppModule -->
<g id="edge32" class="edge">
<title>RequerimientosComponent&#45;&gt;AppModule</title>
<path fill="none" stroke="#000000" d="M5228,-122.3228C5228,-145.6602 5228,-183 5228,-183 5228,-183 3246.9954,-183 3246.9954,-183"/>
<polygon fill="#000000" stroke="#000000" points="3246.9955,-179.5001 3236.9954,-183 3246.9954,-186.5001 3246.9955,-179.5001"/>
</g>
<!-- RespuestaComponent -->
<g id="node26" class="node">
<title>RespuestaComponent</title>
<polygon fill="#ffffb3" stroke="#000000" points="5125.0926,-122 4986.9074,-122 4986.9074,-86 5125.0926,-86 5125.0926,-122"/>
<text text-anchor="middle" x="5056" y="-99.8" font-family="Times,serif" font-size="14.00" fill="#000000">RespuestaComponent</text>
</g>
<!-- RespuestaComponent&#45;&gt;AppModule -->
<g id="edge33" class="edge">
<title>RespuestaComponent&#45;&gt;AppModule</title>
<path fill="none" stroke="#000000" d="M5056,-122.2479C5056,-145.0179 5056,-181 5056,-181 5056,-181 3246.9214,-181 3246.9214,-181"/>
<polygon fill="#000000" stroke="#000000" points="3246.9215,-177.5001 3236.9214,-181 3246.9214,-184.5001 3246.9215,-177.5001"/>
</g>
<!-- RespuestaRequerimientosComponent -->
<g id="node27" class="node">
<title>RespuestaRequerimientosComponent</title>
<polygon fill="#ffffb3" stroke="#000000" points="4969.2407,-122 4742.7593,-122 4742.7593,-86 4969.2407,-86 4969.2407,-122"/>
<text text-anchor="middle" x="4856" y="-99.8" font-family="Times,serif" font-size="14.00" fill="#000000">RespuestaRequerimientosComponent</text>
</g>
<!-- RespuestaRequerimientosComponent&#45;&gt;AppModule -->
<g id="edge34" class="edge">
<title>RespuestaRequerimientosComponent&#45;&gt;AppModule</title>
<path fill="none" stroke="#000000" d="M4856,-122.2921C4856,-144.2057 4856,-178 4856,-178 4856,-178 3246.8894,-178 3246.8894,-178"/>
<polygon fill="#000000" stroke="#000000" points="3246.8894,-174.5001 3236.8894,-178 3246.8894,-181.5001 3246.8894,-174.5001"/>
</g>
<!-- SpinnerComponent -->
<g id="node28" class="node">
<title>SpinnerComponent</title>
<polygon fill="#ffffb3" stroke="#000000" points="4724.3809,-122 4599.6191,-122 4599.6191,-86 4724.3809,-86 4724.3809,-122"/>
<text text-anchor="middle" x="4662" y="-99.8" font-family="Times,serif" font-size="14.00" fill="#000000">SpinnerComponent</text>
</g>
<!-- SpinnerComponent&#45;&gt;AppModule -->
<g id="edge35" class="edge">
<title>SpinnerComponent&#45;&gt;AppModule</title>
<path fill="none" stroke="#000000" d="M4682.8135,-122.1686C4682.8135,-143.498 4682.8135,-176 4682.8135,-176 4682.8135,-176 3246.7373,-176 3246.7373,-176"/>
<polygon fill="#000000" stroke="#000000" points="3246.7373,-172.5001 3236.7373,-176 3246.7372,-179.5001 3246.7373,-172.5001"/>
</g>
<!-- SpinnerComponent&#45;&gt;AppModule -->
<g id="edge36" class="edge">
<title>SpinnerComponent&#45;&gt;AppModule</title>
<path fill="none" stroke="#000000" d="M4641.1865,-122.0267C4641.1865,-142.7672 4641.1865,-174 4641.1865,-174 4641.1865,-174 3246.7219,-174 3246.7219,-174"/>
<polygon fill="#000000" stroke="#000000" points="3246.7219,-170.5001 3236.7219,-174 3246.7219,-177.5001 3246.7219,-170.5001"/>
</g>
<!-- VerComponent -->
<g id="node29" class="node">
<title>VerComponent</title>
<polygon fill="#ffffb3" stroke="#000000" points="4581.3147,-122 4478.6853,-122 4478.6853,-86 4581.3147,-86 4581.3147,-122"/>
<text text-anchor="middle" x="4530" y="-99.8" font-family="Times,serif" font-size="14.00" fill="#000000">VerComponent</text>
</g>
<!-- VerComponent&#45;&gt;AppModule -->
<g id="edge38" class="edge">
<title>VerComponent&#45;&gt;AppModule</title>
<path fill="none" stroke="#000000" d="M4530,-122.2228C4530,-142.3652 4530,-172 4530,-172 4530,-172 3246.7876,-172 3246.7876,-172"/>
<polygon fill="#000000" stroke="#000000" points="3246.7876,-168.5001 3236.7876,-172 3246.7875,-175.5001 3246.7876,-168.5001"/>
</g>
<!-- VerSeguimientoComponent -->
<g id="node30" class="node">
<title>VerSeguimientoComponent</title>
<polygon fill="#ffffb3" stroke="#000000" points="4460.5884,-122 4287.4116,-122 4287.4116,-86 4460.5884,-86 4460.5884,-122"/>
<text text-anchor="middle" x="4374" y="-99.8" font-family="Times,serif" font-size="14.00" fill="#000000">VerSeguimientoComponent</text>
</g>
<!-- VerSeguimientoComponent&#45;&gt;AppModule -->
<g id="edge39" class="edge">
<title>VerSeguimientoComponent&#45;&gt;AppModule</title>
<path fill="none" stroke="#000000" d="M4374,-122.1061C4374,-141.3391 4374,-169 4374,-169 4374,-169 3246.9612,-169 3246.9612,-169"/>
<polygon fill="#000000" stroke="#000000" points="3246.9613,-165.5001 3236.9612,-169 3246.9612,-172.5001 3246.9613,-165.5001"/>
</g>
<!-- AppComponent  -->
<g id="node33" class="node">
<title>AppComponent </title>
<polygon fill="#80b1d3" stroke="#000000" points="3249.439,-252 3140.561,-252 3140.561,-216 3249.439,-216 3249.439,-252"/>
<text text-anchor="middle" x="3195" y="-229.8" font-family="Times,serif" font-size="14.00" fill="#000000">AppComponent </text>
</g>
<!-- AppModule&#45;&gt;AppComponent  -->
<g id="edge41" class="edge">
<title>AppModule&#45;&gt;AppComponent </title>
<path fill="none" stroke="#000000" stroke-dasharray="1,5" d="M3195,-187.1061C3195,-187.1061 3195,-205.991 3195,-205.991"/>
<polygon fill="#000000" stroke="#000000" points="3191.5001,-205.9909 3195,-215.991 3198.5001,-205.991 3191.5001,-205.9909"/>
</g>
<!-- AppRoutingModule -->
<g id="node32" class="node">
<title>AppRoutingModule</title>
<polygon fill="#8dd3c7" stroke="#000000" points="2506.2744,-122 2503.2744,-126 2482.2744,-126 2479.2744,-122 2377.7256,-122 2377.7256,-86 2506.2744,-86 2506.2744,-122"/>
<text text-anchor="middle" x="2442" y="-99.8" font-family="Times,serif" font-size="14.00" fill="#000000">AppRoutingModule</text>
</g>
<!-- AppRoutingModule&#45;&gt;AppModule -->
<g id="edge40" class="edge">
<title>AppRoutingModule&#45;&gt;AppModule</title>
<path fill="none" stroke="#000000" d="M2442,-122.0267C2442,-142.7672 2442,-174 2442,-174 2442,-174 3143.1728,-174 3143.1728,-174"/>
<polygon fill="#000000" stroke="#000000" points="3143.1728,-177.5001 3153.1728,-174 3143.1728,-170.5001 3143.1728,-177.5001"/>
</g>
<!-- AuthServiceService -->
<g id="node34" class="node">
<title>AuthServiceService</title>
<ellipse fill="#fdb462" stroke="#000000" cx="2266" cy="-104" rx="88.0191" ry="18"/>
<text text-anchor="middle" x="2266" y="-99.8" font-family="Times,serif" font-size="14.00" fill="#000000">AuthServiceService</text>
</g>
<!-- AuthServiceService&#45;&gt;AppModule -->
<g id="edge42" class="edge">
<title>AuthServiceService&#45;&gt;AppModule</title>
<path fill="none" stroke="#000000" d="M2266,-122.2921C2266,-144.2057 2266,-178 2266,-178 2266,-178 3143.278,-178 3143.278,-178"/>
<polygon fill="#000000" stroke="#000000" points="3143.2781,-181.5001 3153.278,-178 3143.278,-174.5001 3143.2781,-181.5001"/>
</g>
<!-- EmpleadosRoutingModule -->
<g id="node36" class="node">
<title>EmpleadosRoutingModule</title>
<polygon fill="#8dd3c7" stroke="#000000" points="5701.3752,-122 5698.3752,-126 5677.3752,-126 5674.3752,-122 5534.6248,-122 5534.6248,-86 5701.3752,-86 5701.3752,-122"/>
<text text-anchor="middle" x="5618" y="-99.8" font-family="Times,serif" font-size="14.00" fill="#000000">EmpleadosRoutingModule</text>
</g>
<!-- EmpleadosModule -->
<g id="node37" class="node">
<title>EmpleadosModule</title>
<polygon fill="#8dd3c7" stroke="#000000" points="5678.7576,-187 5675.7576,-191 5654.7576,-191 5651.7576,-187 5557.2424,-187 5557.2424,-151 5678.7576,-151 5678.7576,-187"/>
<text text-anchor="middle" x="5618" y="-164.8" font-family="Times,serif" font-size="14.00" fill="#000000">EmpleadosModule</text>
</g>
<!-- EmpleadosRoutingModule&#45;&gt;EmpleadosModule -->
<g id="edge44" class="edge">
<title>EmpleadosRoutingModule&#45;&gt;EmpleadosModule</title>
<path fill="none" stroke="#000000" d="M5618,-122.1061C5618,-122.1061 5618,-140.991 5618,-140.991"/>
<polygon fill="#000000" stroke="#000000" points="5614.5001,-140.9909 5618,-150.991 5621.5001,-140.991 5614.5001,-140.9909"/>
</g>
</g>
</svg>
